<?xml version="1.0" encoding="utf-8"?>
<!-- Generator: Adobe Illustrator 24.3.0, SVG Export Plug-In . SVG Version: 6.00 Build 0)  -->
<svg version="1.1" id="Layer_1" xmlns="http://www.w3.org/2000/svg" xmlns:xlink="http://www.w3.org/1999/xlink" x="0px" y="0px"
	 viewBox="0 0 300 300" style="enable-background:new 0 0 300 300;" xml:space="preserve">
<style type="text/css">
	.st0{display:none;}
	.st1{display:inline;fill:none;stroke:#000000;stroke-width:35;stroke-linecap:round;stroke-miterlimit:10;}
	.st2{display:inline;}
	.st3{fill:#222222;}
	.st4{fill:#F3F5F7;}
	.st5{display:inline;fill:none;stroke:#FFFFFF;stroke-width:7;stroke-linecap:round;stroke-miterlimit:10;}
	.st6{fill:#0058FF;}
	.st7{fill:#0058FF;stroke:#FFFFFF;stroke-width:21;stroke-miterlimit:10;}
</style>
<g class="st0">
	<line class="st1" x1="149.5" y1="23.7" x2="151.4" y2="278.6"/>
	<line class="st1" x1="277.9" y1="151.2" x2="22.9" y2="151.2"/>
</g>
<g class="st0">
	<polygon class="st2" points="236.3,56.8 236.3,67.3 241.6,67.3 241.6,60.2 246.3,60.2 246.3,67.3 251.1,67.3 251.1,56.8 	"/>
	<polygon class="st2" points="243.7,47.9 233,58.2 254.5,58.2 	"/>
</g>
<g class="st0">
	<path class="st2" d="M261,134.9h-14.8c-1,0-1.8-0.8-1.8-1.8v-9.6c0-1,0.8-1.8,1.8-1.8H261c1,0,1.8,0.8,1.8,1.8v9.6
		C262.8,134.1,262,134.9,261,134.9z"/>
	<path class="st2" d="M252.1,124.7h-6.2c-0.8,0-1.5-0.7-1.5-1.5v-1.8c0-0.8,0.7-1.5,1.5-1.5h6.2c0.8,0,1.5,0.7,1.5,1.5v1.8
		C253.6,124,252.9,124.7,252.1,124.7z"/>
</g>
<g class="st0">
	<g class="st2">
		<path class="st3" d="M200.3,229.2c-2.8,0-5-2.2-5-5v-23.8c0-14.5-13-27.8-34.1-34.6c-2.1-0.7-3.4-2.6-3.4-4.7
			c0-2.2,1.4-4.1,3.4-4.8c10.4-3.4,21.4-5.2,32.8-5.2c24.8,0,47.7,8.1,61.3,21.8c8.1,8.1,12.3,17.6,12.3,27.5v23.8c0,2.8-2.2,5-5,5
			H200.3z"/>
		<path class="st4" d="M194,156.1c38,0,68.7,19.8,68.6,44.3v23.8h-62.3v-23.8c0-17.2-15.2-32.1-37.5-39.4
			C172.2,157.9,182.8,156.1,194,156.1 M194,146.1c-11.9,0-23.5,1.8-34.3,5.4c-4.1,1.4-6.9,5.2-6.9,9.5s2.8,8.1,6.9,9.5
			c18.6,6.1,30.6,17.8,30.6,29.9v23.8c0,5.5,4.5,10,10,10h62.3c5.5,0,10-4.5,10-10v-23.8c0-11.2-4.7-22-13.7-31
			C244.4,154.8,220.1,146.1,194,146.1L194,146.1z"/>
	</g>
	<g class="st2">
		<path class="st3" d="M41.8,229.1c-2.8,0-5-2.2-5-5v-23.8c0-13.6,8-26.2,22.4-35.5c13.8-8.9,32-13.7,51.3-13.7s37.5,4.9,51.3,13.7
			c14.4,9.3,22.4,21.9,22.4,35.5v23.8c0,2.8-2.2,5-5,5H41.8z"/>
		<path class="st4" d="M110.5,156.1c38,0,68.7,19.8,68.7,44.2v23.8H41.8v-23.8C41.8,175.9,72.6,156.1,110.5,156.1 M110.5,146.1
			c-20.2,0-39.4,5.2-54,14.5c-15.9,10.3-24.7,24.3-24.7,39.7v23.8c0,5.5,4.5,10,10,10h137.4c5.5,0,10-4.5,10-10v-23.8
			c0-15.3-8.8-29.4-24.7-39.7C149.9,151.3,130.8,146.1,110.5,146.1L110.5,146.1z"/>
	</g>
	<g class="st2">
		<circle class="st3" cx="110.5" cy="107.8" r="37"/>
		<path class="st4" d="M110.5,75.8c17.7,0,32,14.3,32,32s-14.3,32-32,32s-32-14.3-32-32S92.8,75.8,110.5,75.8 M110.5,65.8
			c-23.2,0-42,18.8-42,42s18.8,42,42,42s42-18.8,42-42S133.7,65.8,110.5,65.8L110.5,65.8z"/>
	</g>
	<g class="st2">
		<circle class="st3" cx="194.9" cy="107.8" r="37"/>
		<path class="st4" d="M194.9,75.8c17.7,0,32,14.3,32,32s-14.3,32-32,32s-32-14.3-32-32S177.2,75.8,194.9,75.8 M194.9,65.8
			c-23.2,0-42,18.8-42,42s18.8,42,42,42s42-18.8,42-42S218.1,65.8,194.9,65.8L194.9,65.8z"/>
	</g>
</g>
<g class="st0">
	<path class="st2" d="M204.9,170.6H47.5c-0.9,0-1.6-0.7-1.6-1.6V63.1c0-0.9,0.7-1.6,1.6-1.6h157.4c0.9,0,1.6,0.7,1.6,1.6V169
		C206.6,169.9,205.8,170.6,204.9,170.6z"/>
	<path class="st2" d="M246.2,116h-29.4v50c0,9.9-8.1,18-18,18H98.4v36.6c0,9.9,8.1,18,18,18h129.8c10,0,18-8.1,18-18v-86.5
		C264.2,124.1,256.2,116,246.2,116z"/>
	<polygon class="st2" points="45.9,199.2 93.6,167.8 45.9,142 	"/>
</g>
<g class="st0">
	<path class="st2" d="M251.2,219.5H48.8c-0.9,0-1.6-0.7-1.6-1.6V57c0-0.9,0.7-1.6,1.6-1.6h202.4c0.9,0,1.6,0.7,1.6,1.6v160.8
		C252.8,218.8,252.1,219.5,251.2,219.5z"/>
	<polygon class="st2" points="47.2,262.4 108.3,215.2 47.2,176.6 	"/>
	<line class="st5" x1="92.1" y1="105.9" x2="209" y2="106.9"/>
	<line class="st5" x1="91.8" y1="138.6" x2="208.7" y2="139.6"/>
	<line class="st5" x1="91.6" y1="168.9" x2="208.4" y2="169.9"/>
</g>
<g>
	<path class="st6" d="M264.6,260.9H39.4c-7.6,0-13.8-6.2-13.8-13.8v-143c0-7.6,6.2-13.8,13.8-13.8h225.2c7.6,0,13.8,6.2,13.8,13.8
		v143C278.4,254.7,272.2,260.9,264.6,260.9z"/>
	<path class="st7" d="M158.8,187.2l112.6-71.9c10.7-6.9,5.9-23.5-6.9-23.5H39.3c-12.7,0-17.6,16.6-6.9,23.5L145,187.2
		C149.2,189.8,154.6,189.8,158.8,187.2z"/>
</g>
</svg>
