<?xml version="1.0" encoding="utf-8"?>
<!-- Generator: Adobe Illustrator 24.1.2, SVG Export Plug-In . SVG Version: 6.00 Build 0)  -->
<svg version="1.1" id="Layer_1" xmlns="http://www.w3.org/2000/svg" xmlns:xlink="http://www.w3.org/1999/xlink" x="0px" y="0px"
	 viewBox="0 0 300 300" style="enable-background:new 0 0 300 300;" xml:space="preserve">
<style type="text/css">
	.st0{display:none;}
	.st1{display:inline;fill:none;stroke:#000000;stroke-width:35;stroke-linecap:round;stroke-miterlimit:10;}
	.st2{display:inline;}
	.st3{fill:#222222;}
	.st4{fill:#F3F5F7;}
	.st5{fill:none;stroke:#FFFFFF;stroke-width:7;stroke-linecap:round;stroke-miterlimit:10;}
</style>
<g class="st0">
	<line class="st1" x1="149.5" y1="23.7" x2="151.4" y2="278.6"/>
	<line class="st1" x1="277.9" y1="151.2" x2="22.9" y2="151.2"/>
</g>
<g class="st0">
	<polygon class="st2" points="236.3,56.8 236.3,67.3 241.6,67.3 241.6,60.2 246.3,60.2 246.3,67.3 251.1,67.3 251.1,56.8 	"/>
	<polygon class="st2" points="243.7,47.9 233,58.2 254.5,58.2 	"/>
</g>
<g class="st0">
	<path class="st2" d="M261,134.9h-14.8c-1,0-1.8-0.8-1.8-1.8v-9.6c0-1,0.8-1.8,1.8-1.8H261c1,0,1.8,0.8,1.8,1.8v9.6
		C262.8,134.1,262,134.9,261,134.9z"/>
	<path class="st2" d="M252.1,124.7h-6.2c-0.8,0-1.5-0.7-1.5-1.5v-1.8c0-0.8,0.7-1.5,1.5-1.5h6.2c0.8,0,1.5,0.7,1.5,1.5v1.8
		C253.6,124,252.9,124.7,252.1,124.7z"/>
</g>
<g class="st0">
	<path class="st2" d="M252.9,90.3c-1,0-2,0.2-2.9,0.4c2.1,0.7,3.5,2.1,3.5,3.6v2.2h5.8v-2.2C259.2,92.1,256.4,90.3,252.9,90.3z"/>
	<path class="st2" d="M245.2,90.3c-3.5,0-6.3,1.8-6.3,4.1v2.2h12.7v-2.2C251.5,92.1,248.7,90.3,245.2,90.3z"/>
	<circle class="st2" cx="245.2" cy="85.9" r="2.9"/>
	<circle class="st2" cx="252.9" cy="85.9" r="2.9"/>
</g>
<g class="st0">
	<path class="st2" d="M258.4,182.8h-11.3c-0.9,0-1.6-0.7-1.6-1.6v-6.7c0-0.9,0.7-1.6,1.6-1.6h11.3c0.9,0,1.6,0.7,1.6,1.6v6.7
		C260.1,182,259.3,182.8,258.4,182.8z"/>
	<path class="st2" d="M263.7,177.8H261v4.6c0,0.9-0.7,1.6-1.6,1.6h-9.1v3.3c0,0.9,0.7,1.6,1.6,1.6h11.8c0.9,0,1.6-0.7,1.6-1.6v-7.9
		C265.3,178.5,264.6,177.8,263.7,177.8z"/>
	<polygon class="st2" points="245.4,185.4 249.8,182.5 245.4,180.1 	"/>
</g>
<g>
	<path class="st3" d="M47.2,267.4c-0.8,0-1.5-0.2-2.2-0.5c-1.7-0.8-2.8-2.6-2.8-4.5V57c0-3.6,3-6.6,6.6-6.6h202.4
		c3.6,0,6.6,3,6.6,6.6v160.8c0,3.8-2.9,6.7-6.6,6.7H104.4l-54.2,41.9C49.4,267,48.3,267.4,47.2,267.4z"/>
	<path class="st4" d="M251.2,55.4c0.9,0,1.6,0.7,1.6,1.6v160.8c0,1-0.7,1.7-1.6,1.7H102.7l-55.5,42.9v-44.5v-41.3V57
		c0-0.9,0.7-1.6,1.6-1.6H251.2 M251.2,45.4H48.8c-6.4,0-11.6,5.2-11.6,11.6v119.6v41.3v44.5c0,3.8,2.2,7.3,5.6,9
		c1.4,0.7,2.9,1,4.4,1c2.2,0,4.3-0.7,6.1-2.1l52.8-40.8h145.1c6.4,0,11.6-5.2,11.6-11.7V57C262.8,50.6,257.6,45.4,251.2,45.4
		L251.2,45.4z"/>
</g>
<line class="st5" x1="92.1" y1="105.9" x2="209" y2="106.9"/>
<line class="st5" x1="91.8" y1="138.6" x2="208.7" y2="139.6"/>
<line class="st5" x1="91.6" y1="168.9" x2="208.4" y2="169.9"/>
</svg>
