<?xml version="1.0" encoding="utf-8"?>
<!-- Generator: Adobe Illustrator 24.3.0, SVG Export Plug-In . SVG Version: 6.00 Build 0)  -->
<svg version="1.1" id="Layer_1" xmlns="http://www.w3.org/2000/svg" xmlns:xlink="http://www.w3.org/1999/xlink" x="0px" y="0px"
	 viewBox="0 0 300 300" style="enable-background:new 0 0 300 300;" xml:space="preserve">
<style type="text/css">
	.st0{display:none;}
	.st1{display:inline;fill:none;stroke:#000000;stroke-width:35;stroke-linecap:round;stroke-miterlimit:10;}
	.st2{display:inline;}
	.st3{display:inline;fill:none;stroke:#FFFFFF;stroke-width:7;stroke-linecap:round;stroke-miterlimit:10;}
	.st4{display:none;fill:none;stroke:#000000;stroke-width:7;stroke-miterlimit:10;}
	.st5{fill:none;stroke:#0058FF;stroke-width:5;stroke-linecap:round;stroke-linejoin:round;stroke-miterlimit:10;}
	.st6{fill:none;stroke:#0058FF;stroke-width:5;stroke-linejoin:round;stroke-miterlimit:10;}
	.st7{fill:#0058FF;}
	.st8{fill:none;stroke:#0058FF;stroke-width:6;stroke-miterlimit:10;}
</style>
<g class="st0">
	<line class="st1" x1="149.5" y1="23.7" x2="151.4" y2="278.6"/>
	<line class="st1" x1="277.9" y1="151.2" x2="22.9" y2="151.2"/>
</g>
<g class="st0">
	<polygon class="st2" points="74.1,143.1 74.1,249.3 127.2,249.3 127.2,178.1 174.6,178.1 174.6,249.3 223.6,249.3 223.6,143.1 	"/>
	<polygon class="st2" points="148.9,53.9 40.2,157.3 257.6,157.3 	"/>
</g>
<g class="st0">
	<path class="st2" d="M254,237.3H54.4c-1,0-1.8-0.8-1.8-1.8V93.9c0-1,0.8-1.8,1.8-1.8H254c1,0,1.8,0.8,1.8,1.8v141.6
		C255.8,236.5,255,237.3,254,237.3z"/>
	<path class="st2" d="M152.7,124.3H54.1c-0.8,0-1.5-0.7-1.5-1.5V72.9c0-0.8,0.7-1.5,1.5-1.5h98.6c0.8,0,1.5,0.7,1.5,1.5v49.9
		C154.2,123.6,153.5,124.3,152.7,124.3z"/>
</g>
<g class="st0">
	<path class="st2" d="M194,156.1c-11.2,0-21.8,1.8-31.2,4.9c22.3,7.3,37.5,22.2,37.5,39.4v23.8h62.3v-23.8
		C262.7,175.9,232,156.1,194,156.1z"/>
	<path class="st2" d="M110.5,156.1c-37.9,0-68.7,19.8-68.7,44.2v23.8h137.4v-23.8C179.2,175.9,148.5,156.1,110.5,156.1z"/>
	<circle class="st2" cx="110.5" cy="107.8" r="32"/>
	<circle class="st2" cx="194.9" cy="107.8" r="32"/>
</g>
<g class="st0">
	<path class="st2" d="M204.9,170.6H47.5c-0.9,0-1.6-0.7-1.6-1.6V63.1c0-0.9,0.7-1.6,1.6-1.6h157.4c0.9,0,1.6,0.7,1.6,1.6V169
		C206.6,169.9,205.8,170.6,204.9,170.6z"/>
	<path class="st2" d="M246.2,116h-29.4v50c0,9.9-8.1,18-18,18H98.4v36.6c0,9.9,8.1,18,18,18h129.8c10,0,18-8.1,18-18v-86.5
		C264.2,124.1,256.2,116,246.2,116z"/>
	<polygon class="st2" points="45.9,199.2 93.6,167.8 45.9,142 	"/>
</g>
<g class="st0">
	<path class="st2" d="M251.2,219.5H48.8c-0.9,0-1.6-0.7-1.6-1.6V57c0-0.9,0.7-1.6,1.6-1.6h202.4c0.9,0,1.6,0.7,1.6,1.6v160.8
		C252.8,218.8,252.1,219.5,251.2,219.5z"/>
	<polygon class="st2" points="47.2,262.4 108.3,215.2 47.2,176.6 	"/>
	<line class="st3" x1="92.1" y1="105.9" x2="209" y2="106.9"/>
	<line class="st3" x1="91.8" y1="138.6" x2="208.7" y2="139.6"/>
	<line class="st3" x1="91.6" y1="168.9" x2="208.4" y2="169.9"/>
</g>
<path class="st4" d="M235.5,73.4H76.9c-10.3,0-18.7,8.4-18.7,18.7v79.6v33.2v23.3c0,7.2,5,9.9,11,5.9l37.7-24.8
	c2.8-1.8,6-2.8,9.4-2.8h119.2c10.3,0,18.7-8.4,18.7-18.7V92.1C254.2,81.8,245.8,73.4,235.5,73.4z"/>
<g class="st0">
	<path class="st2" d="M77.5,100.8c0-9.2,2.9-18.5,8.8-27.9s14.5-17.2,25.8-23.4s24.5-9.3,39.6-9.3c14,0,26.4,2.6,37.1,7.8
		c10.7,5.2,19,12.2,24.9,21.1s8.8,18.6,8.8,29c0,8.2-1.7,15.4-5,21.6s-7.3,11.5-11.9,16c-4.6,4.5-12.8,12.1-24.7,22.7
		c-3.3,3-5.9,5.6-7.9,7.9c-2,2.3-3.5,4.4-4.4,6.2c-1,1.9-1.7,3.8-2.3,5.7c-0.5,1.9-1.3,5.2-2.4,9.9c-1.8,10.1-7.6,15.1-17.3,15.1
		c-5,0-9.3-1.6-12.7-4.9c-3.4-3.3-5.1-8.2-5.1-14.6c0-8.1,1.3-15.2,3.8-21.1c2.5-5.9,5.9-11.2,10-15.7c4.2-4.5,9.8-9.8,16.8-16
		c6.2-5.4,10.7-9.5,13.4-12.3c2.8-2.8,5.1-5.8,7-9.2c1.9-3.4,2.8-7.1,2.8-11c0-7.7-2.9-14.3-8.6-19.6s-13.2-8-22.3-8
		c-10.6,0-18.5,2.7-23.5,8.1s-9.3,13.3-12.8,23.7c-3.3,10.9-9.5,16.4-18.7,16.4c-5.4,0-10-1.9-13.7-5.7
		C79.3,109.4,77.5,105.3,77.5,100.8z M148.3,259.8c-5.9,0-11.1-1.9-15.4-5.7c-4.4-3.8-6.6-9.2-6.6-16c0-6.1,2.1-11.2,6.4-15.4
		s9.5-6.2,15.7-6.2c6.1,0,11.2,2.1,15.4,6.2c4.2,4.2,6.2,9.3,6.2,15.4c0,6.8-2.2,12.1-6.5,15.9C159,257.9,154,259.8,148.3,259.8z"/>
</g>
<polygon class="st5" points="63.9,238.4 123.3,224 78.3,179.1 "/>
<path class="st6" d="M250.1,97.4l0.7-0.7l-0.4-0.4c0.2-4.6-7.2-15.4-18.1-26.3S210.5,51.8,206,52l-0.4-0.4l-0.7,0.7
	c-0.2,0.1-0.3,0.2-0.5,0.3c-0.1,0.1-0.2,0.3-0.3,0.5L78.7,178.4l45.2,45.2L249.3,98.2c0.2-0.1,0.3-0.2,0.5-0.3
	C249.9,97.8,250,97.6,250.1,97.4z"/>
<polygon class="st7" points="65.4,236.9 83.9,232.4 69.9,218.4 "/>
<line class="st8" x1="93.7" y1="190" x2="224.8" y2="63.6"/>
<line class="st8" x1="110.2" y1="207.1" x2="241.4" y2="80.8"/>
</svg>
