<?xml version="1.0" encoding="utf-8"?>
<!-- Generator: Adobe Illustrator 24.3.0, SVG Export Plug-In . SVG Version: 6.00 Build 0)  -->
<svg version="1.1" id="Layer_1" xmlns="http://www.w3.org/2000/svg" xmlns:xlink="http://www.w3.org/1999/xlink" x="0px" y="0px"
	 viewBox="0 0 300 300" style="enable-background:new 0 0 300 300;" xml:space="preserve">
<style type="text/css">
	.st0{display:none;}
	.st1{display:inline;fill:none;stroke:#000000;stroke-width:35;stroke-linecap:round;stroke-miterlimit:10;}
	.st2{display:inline;}
	.st3{display:inline;fill:none;stroke:#FFFFFF;stroke-width:7;stroke-linecap:round;stroke-miterlimit:10;}
	.st4{display:none;fill:none;stroke:#000000;stroke-width:7;stroke-miterlimit:10;}
	.st5{fill:none;stroke:#0058FF;stroke-width:15;stroke-linecap:round;stroke-miterlimit:10;}
	.st6{fill:#0058FF;stroke:#0058FF;stroke-width:15;stroke-linecap:round;stroke-linejoin:round;stroke-miterlimit:10;}
	.st7{fill:none;stroke:#222222;stroke-width:15;stroke-linecap:round;stroke-miterlimit:10;}
	.st8{fill:#222222;stroke:#222222;stroke-width:15;stroke-linecap:round;stroke-linejoin:round;stroke-miterlimit:10;}
</style>
<g class="st0">
	<line class="st1" x1="149.5" y1="23.7" x2="151.4" y2="278.6"/>
	<line class="st1" x1="277.9" y1="151.2" x2="22.9" y2="151.2"/>
</g>
<g class="st0">
	<polygon class="st2" points="74.1,143.1 74.1,249.3 127.2,249.3 127.2,178.1 174.6,178.1 174.6,249.3 223.6,249.3 223.6,143.1 	"/>
	<polygon class="st2" points="148.9,53.9 40.2,157.3 257.6,157.3 	"/>
</g>
<g class="st0">
	<path class="st2" d="M254,237.3H54.4c-1,0-1.8-0.8-1.8-1.8V93.9c0-1,0.8-1.8,1.8-1.8H254c1,0,1.8,0.8,1.8,1.8v141.6
		C255.8,236.5,255,237.3,254,237.3z"/>
	<path class="st2" d="M152.7,124.3H54.1c-0.8,0-1.5-0.7-1.5-1.5V72.9c0-0.8,0.7-1.5,1.5-1.5h98.6c0.8,0,1.5,0.7,1.5,1.5v49.9
		C154.2,123.6,153.5,124.3,152.7,124.3z"/>
</g>
<g class="st0">
	<path class="st2" d="M194,156.1c-11.2,0-21.8,1.8-31.2,4.9c22.3,7.3,37.5,22.2,37.5,39.4v23.8h62.3v-23.8
		C262.7,175.9,232,156.1,194,156.1z"/>
	<path class="st2" d="M110.5,156.1c-37.9,0-68.7,19.8-68.7,44.2v23.8h137.4v-23.8C179.2,175.9,148.5,156.1,110.5,156.1z"/>
	<circle class="st2" cx="110.5" cy="107.8" r="32"/>
	<circle class="st2" cx="194.9" cy="107.8" r="32"/>
</g>
<g class="st0">
	<path class="st2" d="M204.9,170.6H47.5c-0.9,0-1.6-0.7-1.6-1.6V63.1c0-0.9,0.7-1.6,1.6-1.6h157.4c0.9,0,1.6,0.7,1.6,1.6V169
		C206.6,169.9,205.8,170.6,204.9,170.6z"/>
	<path class="st2" d="M246.2,116h-29.4v50c0,9.9-8.1,18-18,18H98.4v36.6c0,9.9,8.1,18,18,18h129.8c10,0,18-8.1,18-18v-86.5
		C264.2,124.1,256.2,116,246.2,116z"/>
	<polygon class="st2" points="45.9,199.2 93.6,167.8 45.9,142 	"/>
</g>
<g class="st0">
	<path class="st2" d="M251.2,219.5H48.8c-0.9,0-1.6-0.7-1.6-1.6V57c0-0.9,0.7-1.6,1.6-1.6h202.4c0.9,0,1.6,0.7,1.6,1.6v160.8
		C252.8,218.8,252.1,219.5,251.2,219.5z"/>
	<polygon class="st2" points="47.2,262.4 108.3,215.2 47.2,176.6 	"/>
	<line class="st3" x1="92.1" y1="105.9" x2="209" y2="106.9"/>
	<line class="st3" x1="91.8" y1="138.6" x2="208.7" y2="139.6"/>
	<line class="st3" x1="91.6" y1="168.9" x2="208.4" y2="169.9"/>
</g>
<path class="st4" d="M235.5,73.4H76.9c-10.3,0-18.7,8.4-18.7,18.7v79.6v33.2v23.3c0,7.2,5,9.9,11,5.9l37.7-24.8
	c2.8-1.8,6-2.8,9.4-2.8h119.2c10.3,0,18.7-8.4,18.7-18.7V92.1C254.2,81.8,245.8,73.4,235.5,73.4z"/>
<path class="st5" d="M36.2,102.1c19.1-40.9,60.6-69.3,108.7-69.3c50.8,0,94.2,31.6,111.6,76.2"/>
<polygon class="st6" points="260.7,110.9 257.4,60.1 213.5,91.9 "/>
<path class="st7" d="M259.2,200.5c-20,40.4-62.1,67.9-110.2,66.7c-50.8-1.2-93.4-33.7-109.8-78.8"/>
<polygon class="st8" points="34.9,186.5 37.1,237.3 81.7,206.5 "/>
</svg>
