<?xml version="1.0" encoding="utf-8"?>
<!-- Generator: Adobe Illustrator 24.1.2, SVG Export Plug-In . SVG Version: 6.00 Build 0)  -->
<svg version="1.1" id="Layer_1" xmlns="http://www.w3.org/2000/svg" xmlns:xlink="http://www.w3.org/1999/xlink" x="0px" y="0px"
	 viewBox="0 0 300 300" style="enable-background:new 0 0 300 300;" xml:space="preserve">
<style type="text/css">
	.st0{display:none;}
	.st1{display:inline;fill:none;stroke:#000000;stroke-width:35;stroke-linecap:round;stroke-miterlimit:10;}
	.st2{display:inline;}
	.st3{fill:#222222;}
	.st4{fill:#F3F5F7;}
	.st5{display:inline;fill:none;stroke:#FFFFFF;stroke-width:7;stroke-linecap:round;stroke-miterlimit:10;}
</style>
<g class="st0">
	<line class="st1" x1="149.5" y1="23.7" x2="151.4" y2="278.6"/>
	<line class="st1" x1="277.9" y1="151.2" x2="22.9" y2="151.2"/>
</g>
<g class="st0">
	<polygon class="st2" points="236.3,56.8 236.3,67.3 241.6,67.3 241.6,60.2 246.3,60.2 246.3,67.3 251.1,67.3 251.1,56.8 	"/>
	<polygon class="st2" points="243.7,47.9 233,58.2 254.5,58.2 	"/>
</g>
<g class="st0">
	<path class="st2" d="M261,134.9h-14.8c-1,0-1.8-0.8-1.8-1.8v-9.6c0-1,0.8-1.8,1.8-1.8H261c1,0,1.8,0.8,1.8,1.8v9.6
		C262.8,134.1,262,134.9,261,134.9z"/>
	<path class="st2" d="M252.1,124.7h-6.2c-0.8,0-1.5-0.7-1.5-1.5v-1.8c0-0.8,0.7-1.5,1.5-1.5h6.2c0.8,0,1.5,0.7,1.5,1.5v1.8
		C253.6,124,252.9,124.7,252.1,124.7z"/>
</g>
<g class="st0">
	<path class="st2" d="M252.9,90.3c-1,0-2,0.2-2.9,0.4c2.1,0.7,3.5,2.1,3.5,3.6v2.2h5.8v-2.2C259.2,92.1,256.4,90.3,252.9,90.3z"/>
	<path class="st2" d="M245.2,90.3c-3.5,0-6.3,1.8-6.3,4.1v2.2h12.7v-2.2C251.5,92.1,248.7,90.3,245.2,90.3z"/>
	<circle class="st2" cx="245.2" cy="85.9" r="2.9"/>
	<circle class="st2" cx="252.9" cy="85.9" r="2.9"/>
</g>
<g>
	<path class="st3" d="M116.4,243.6c-12.7,0-23-10.3-23-23V184c0-2.8,2.2-5,5-5h100.4c7.2,0,13-5.8,13-13v-50c0-2.8,2.2-5,5-5h29.4
		c12.7,0,23,10.4,23,23.1v86.5c0,12.7-10.3,23-23,23H116.4z"/>
	<path class="st4" d="M246.2,116c10,0,18,8.1,18,18.1v86.5c0,9.9-8,18-18,18H116.4c-9.9,0-18-8.1-18-18V184h100.4
		c9.9,0,18-8.1,18-18v-50H246.2 M246.2,106h-29.4c-5.5,0-10,4.5-10,10v50c0,4.4-3.6,8-8,8H98.4c-5.5,0-10,4.5-10,10v36.6
		c0,15.4,12.6,28,28,28h129.8c15.4,0,28-12.6,28-28v-86.5C274.2,118.6,261.6,106,246.2,106L246.2,106z"/>
</g>
<g>
	<path class="st3" d="M45.9,204.2c-0.8,0-1.6-0.2-2.4-0.6c-1.6-0.9-2.6-2.6-2.6-4.4V63.1c0-3.6,3-6.6,6.6-6.6h157.4
		c3.6,0,6.6,3,6.6,6.6v105.7c0.1,1.7-0.5,3.3-1.6,4.6c-1.3,1.4-3.1,2.2-5,2.2H90.8l-42.2,27.8C47.8,203.9,46.9,204.2,45.9,204.2z"/>
	<path class="st4" d="M204.9,61.5c0.9,0,1.6,0.7,1.6,1.6V169c0.1,0.9-0.7,1.6-1.6,1.6H89.3l-43.4,28.6V169v-27V63.1
		c0-0.9,0.7-1.6,1.6-1.6H204.9 M204.9,51.5H47.5c-6.4,0-11.6,5.2-11.6,11.6V142v27v30.2c0,3.7,2,7.1,5.3,8.8
		c1.5,0.8,3.1,1.2,4.7,1.2c1.9,0,3.8-0.6,5.5-1.6l40.9-27h112.6c3.3,0,6.5-1.4,8.7-3.9c2-2.2,3-5.1,2.9-8V63.1
		C216.5,56.7,211.3,51.5,204.9,51.5L204.9,51.5z"/>
</g>
<g class="st0">
	<path class="st2" d="M251.2,219.5H48.8c-0.9,0-1.6-0.7-1.6-1.6V57c0-0.9,0.7-1.6,1.6-1.6h202.4c0.9,0,1.6,0.7,1.6,1.6v160.8
		C252.8,218.8,252.1,219.5,251.2,219.5z"/>
	<polygon class="st2" points="47.2,262.4 108.3,215.2 47.2,176.6 	"/>
	<line class="st5" x1="92.1" y1="105.9" x2="209" y2="106.9"/>
	<line class="st5" x1="91.8" y1="138.6" x2="208.7" y2="139.6"/>
	<line class="st5" x1="91.6" y1="168.9" x2="208.4" y2="169.9"/>
</g>
</svg>
