<?xml version="1.0" encoding="utf-8"?>
<!-- Generator: Adobe Illustrator 24.2.3, SVG Export Plug-In . SVG Version: 6.00 Build 0)  -->
<svg version="1.1" id="Layer_1" xmlns="http://www.w3.org/2000/svg" xmlns:xlink="http://www.w3.org/1999/xlink" x="0px" y="0px"
	 viewBox="0 0 300 300" style="enable-background:new 0 0 300 300;" xml:space="preserve">
<style type="text/css">
	.st0{fill:#FFFFFF;}
	.st1{display:none;fill:#F3F5F7;}
	.st2{display:none;}
	.st3{display:inline;}
	.st4{display:inline;fill:none;stroke:#FFFFFF;stroke-linecap:round;stroke-miterlimit:10;}
</style>
<g>
	<path class="st0" d="M150.7,261c-12.3,0-22.4-10-22.5-22.3l-0.5-66.2H61.5C49.1,172.5,39,162.4,39,150s10.1-22.5,22.5-22.5h65.8
		l-0.5-65.8c0-6,2.2-11.7,6.5-16c4.2-4.3,9.8-6.7,15.9-6.7h0.2c12.3,0,22.4,10,22.5,22.3l0.5,66.2h66.2c12.4,0,22.5,10.1,22.5,22.5
		c0,12.4-10.1,22.5-22.5,22.5h-65.8l0.5,65.8c0,6-2.2,11.7-6.5,16s-9.8,6.7-15.9,6.7H150.7z"/>
	<path class="st1" d="M149.3,44c9.6,0,17.4,7.7,17.5,17.4l0.6,71.1h71.1c9.7,0,17.5,7.8,17.5,17.5s-7.8,17.5-17.5,17.5h-70.9
		l0.6,70.9c0.1,9.7-7.7,17.6-17.4,17.6h-0.1c-9.6,0-17.4-7.7-17.5-17.4l-0.6-71.1H61.5c-9.7,0-17.5-7.8-17.5-17.5
		s7.8-17.5,17.5-17.5h70.9l-0.6-70.9c-0.1-9.7,7.7-17.6,17.4-17.6C149.2,44,149.3,44,149.3,44 M149.3,34h-0.2
		c-15.1,0.1-27.4,12.6-27.3,27.7l0.5,60.8H61.5C46.3,122.5,34,134.8,34,150s12.3,27.5,27.5,27.5h61.2l0.5,61.2
		c0.1,15,12.5,27.3,27.5,27.3c0.1,0,0.2,0,0.3,0c7.3-0.1,14.2-3,19.3-8.2c5.2-5.2,8-12.2,7.9-19.5l-0.5-60.8h60.8
		c15.2,0,27.5-12.3,27.5-27.5s-12.3-27.5-27.5-27.5h-61.2l-0.5-61.2C176.7,46.2,164.3,34,149.3,34L149.3,34z"/>
</g>
<g class="st2">
	<polygon class="st3" points="236.3,56.8 236.3,67.3 241.6,67.3 241.6,60.2 246.3,60.2 246.3,67.3 251.1,67.3 251.1,56.8 	"/>
	<polygon class="st3" points="243.7,47.9 233,58.2 254.5,58.2 	"/>
</g>
<g class="st2">
	<path class="st3" d="M261,134.9h-14.8c-1,0-1.8-0.8-1.8-1.8v-9.6c0-1,0.8-1.8,1.8-1.8H261c1,0,1.8,0.8,1.8,1.8v9.6
		C262.8,134.1,262,134.9,261,134.9z"/>
	<path class="st3" d="M252.1,124.7h-6.2c-0.8,0-1.5-0.7-1.5-1.5v-1.8c0-0.8,0.7-1.5,1.5-1.5h6.2c0.8,0,1.5,0.7,1.5,1.5v1.8
		C253.6,124,252.9,124.7,252.1,124.7z"/>
</g>
<g class="st2">
	<path class="st3" d="M252.9,90.3c-1,0-2,0.2-2.9,0.4c2.1,0.7,3.5,2.1,3.5,3.6v2.2h5.8v-2.2C259.2,92.1,256.4,90.3,252.9,90.3z"/>
	<path class="st3" d="M245.2,90.3c-3.5,0-6.3,1.8-6.3,4.1v2.2h12.7v-2.2C251.5,92.1,248.7,90.3,245.2,90.3z"/>
	<circle class="st3" cx="245.2" cy="85.9" r="2.9"/>
	<circle class="st3" cx="252.9" cy="85.9" r="2.9"/>
</g>
<g class="st2">
	<path class="st3" d="M258.4,182.8h-11.3c-0.9,0-1.6-0.7-1.6-1.6v-6.7c0-0.9,0.7-1.6,1.6-1.6h11.3c0.9,0,1.6,0.7,1.6,1.6v6.7
		C260.1,182,259.3,182.8,258.4,182.8z"/>
	<path class="st3" d="M263.7,177.8H261v4.6c0,0.9-0.7,1.6-1.6,1.6h-9.1v3.3c0,0.9,0.7,1.6,1.6,1.6h11.8c0.9,0,1.6-0.7,1.6-1.6v-7.9
		C265.3,178.5,264.6,177.8,263.7,177.8z"/>
	<polygon class="st3" points="245.4,185.4 249.8,182.5 245.4,180.1 	"/>
</g>
<g class="st2">
	<path class="st3" d="M260.4,222.6h-15.2c-0.9,0-1.6-0.7-1.6-1.6v-11.5c0-0.9,0.7-1.6,1.6-1.6h15.2c0.9,0,1.6,0.7,1.6,1.6V221
		C262.1,221.9,261.4,222.6,260.4,222.6z"/>
	<polygon class="st3" points="243.6,226.4 249.1,222.2 243.6,218.7 	"/>
	<line class="st4" x1="247.6" y1="212.4" x2="258.1" y2="212.5"/>
	<line class="st4" x1="247.6" y1="215.3" x2="258.1" y2="215.4"/>
	<line class="st4" x1="247.6" y1="218" x2="258.1" y2="218.1"/>
</g>
</svg>
