<?xml version="1.0" encoding="utf-8"?>
<!-- Generator: Adobe Illustrator 24.1.2, SVG Export Plug-In . SVG Version: 6.00 Build 0)  -->
<svg version="1.1" id="Layer_1" xmlns="http://www.w3.org/2000/svg" xmlns:xlink="http://www.w3.org/1999/xlink" x="0px" y="0px"
	 viewBox="0 0 300 300" style="enable-background:new 0 0 300 300;" xml:space="preserve">
<style type="text/css">
	.st0{display:none;}
	.st1{display:inline;fill:none;stroke:#000000;stroke-width:35;stroke-linecap:round;stroke-miterlimit:10;}
	.st2{fill:#222222;}
	.st3{fill:#F3F5F7;}
	.st4{display:inline;}
	.st5{display:inline;fill:none;stroke:#FFFFFF;stroke-width:7;stroke-linecap:round;stroke-miterlimit:10;}
</style>
<g class="st0">
	<line class="st1" x1="149.5" y1="23.7" x2="151.4" y2="278.6"/>
	<line class="st1" x1="277.9" y1="151.2" x2="22.9" y2="151.2"/>
</g>
<g>
	<path class="st2" d="M174.6,254.3c-2.8,0-5-2.2-5-5v-66.2h-37.4v66.2c0,2.8-2.2,5-5,5H74.1c-2.8,0-5-2.2-5-5v-87H40.2
		c-2,0-3.9-1.2-4.6-3.1c-0.8-1.9-0.3-4.1,1.2-5.5L145.5,50.3c1-0.9,2.2-1.4,3.4-1.4s2.5,0.5,3.4,1.4L261,153.7
		c1.5,1.4,2,3.6,1.2,5.5c-0.8,1.9-2.6,3.1-4.6,3.1h-29v87c0,2.8-2.2,5-5,5H174.6z"/>
	<path class="st3" d="M148.9,53.9l108.7,103.4h-34v92h-49v-71.2h-47.4v71.2H74.1v-92H40.2L148.9,53.9 M148.9,43.9
		c-2.5,0-5,0.9-6.9,2.8L33.3,150.1c-3,2.8-3.9,7.2-2.4,11c1.5,3.8,5.2,6.3,9.3,6.3h23.9v82c0,5.5,4.5,10,10,10h53.1
		c5.5,0,10-4.5,10-10v-61.2h27.4v61.2c0,5.5,4.5,10,10,10h49c5.5,0,10-4.5,10-10v-82h24c4.1,0,7.8-2.5,9.3-6.3
		c1.5-3.8,0.6-8.1-2.4-11L155.8,46.7C153.9,44.8,151.4,43.9,148.9,43.9L148.9,43.9z"/>
</g>
<g class="st0">
	<path class="st4" d="M254,237.3H54.4c-1,0-1.8-0.8-1.8-1.8V93.9c0-1,0.8-1.8,1.8-1.8H254c1,0,1.8,0.8,1.8,1.8v141.6
		C255.8,236.5,255,237.3,254,237.3z"/>
	<path class="st4" d="M152.7,124.3H54.1c-0.8,0-1.5-0.7-1.5-1.5V72.9c0-0.8,0.7-1.5,1.5-1.5h98.6c0.8,0,1.5,0.7,1.5,1.5v49.9
		C154.2,123.6,153.5,124.3,152.7,124.3z"/>
</g>
<g class="st0">
	<path class="st4" d="M194,156.1c-11.2,0-21.8,1.8-31.2,4.9c22.3,7.3,37.5,22.2,37.5,39.4v23.8h62.3v-23.8
		C262.7,175.9,232,156.1,194,156.1z"/>
	<path class="st4" d="M110.5,156.1c-37.9,0-68.7,19.8-68.7,44.2v23.8h137.4v-23.8C179.2,175.9,148.5,156.1,110.5,156.1z"/>
	<circle class="st4" cx="110.5" cy="107.8" r="32"/>
	<circle class="st4" cx="194.9" cy="107.8" r="32"/>
</g>
<g class="st0">
	<path class="st4" d="M204.9,170.6H47.5c-0.9,0-1.6-0.7-1.6-1.6V63.1c0-0.9,0.7-1.6,1.6-1.6h157.4c0.9,0,1.6,0.7,1.6,1.6V169
		C206.6,169.9,205.8,170.6,204.9,170.6z"/>
	<path class="st4" d="M246.2,116h-29.4v50c0,9.9-8.1,18-18,18H98.4v36.6c0,9.9,8.1,18,18,18h129.8c10,0,18-8.1,18-18v-86.5
		C264.2,124.1,256.2,116,246.2,116z"/>
	<polygon class="st4" points="45.9,199.2 93.6,167.8 45.9,142 	"/>
</g>
<g class="st0">
	<path class="st4" d="M251.2,219.5H48.8c-0.9,0-1.6-0.7-1.6-1.6V57c0-0.9,0.7-1.6,1.6-1.6h202.4c0.9,0,1.6,0.7,1.6,1.6v160.8
		C252.8,218.8,252.1,219.5,251.2,219.5z"/>
	<polygon class="st4" points="47.2,262.4 108.3,215.2 47.2,176.6 	"/>
	<line class="st5" x1="92.1" y1="105.9" x2="209" y2="106.9"/>
	<line class="st5" x1="91.8" y1="138.6" x2="208.7" y2="139.6"/>
	<line class="st5" x1="91.6" y1="168.9" x2="208.4" y2="169.9"/>
</g>
</svg>
