<?xml version="1.0" encoding="utf-8"?>
<!-- Generator: Adobe Illustrator 24.2.3, SVG Export Plug-In . SVG Version: 6.00 Build 0)  -->
<svg version="1.1" id="Layer_1" xmlns="http://www.w3.org/2000/svg" xmlns:xlink="http://www.w3.org/1999/xlink" x="0px" y="0px"
	 viewBox="0 0 300 300" style="enable-background:new 0 0 300 300;" xml:space="preserve">
<style type="text/css">
	.st0{fill:#222222;stroke:#F3F5F7;stroke-width:15;stroke-miterlimit:10;}
	.st1{display:none;}
	.st2{display:inline;fill:none;stroke:#000000;stroke-width:35;stroke-linecap:round;stroke-miterlimit:10;}
	.st3{display:inline;}
	.st4{display:none;fill:#222222;}
	.st5{display:none;fill:#F3F5F7;}
	.st6{display:inline;fill:none;stroke:#FFFFFF;stroke-width:7;stroke-linecap:round;stroke-miterlimit:10;}
	.st7{fill:#F3F5F7;stroke:#222222;stroke-width:10;stroke-miterlimit:10;}
</style>
<circle class="st0" cx="153.2" cy="147.4" r="139.2"/>
<g class="st1">
	<line class="st2" x1="149.5" y1="23.7" x2="151.4" y2="278.6"/>
	<line class="st2" x1="277.9" y1="151.2" x2="22.9" y2="151.2"/>
</g>
<g class="st1">
	<polygon class="st3" points="236.3,56.8 236.3,67.3 241.6,67.3 241.6,60.2 246.3,60.2 246.3,67.3 251.1,67.3 251.1,56.8 	"/>
	<polygon class="st3" points="243.7,47.9 233,58.2 254.5,58.2 	"/>
</g>
<path class="st4" d="M54.4,242.3c-3.7,0-6.8-3.1-6.8-6.8V72.9c0-3.6,2.9-6.5,6.5-6.5h98.6c3.6,0,6.5,2.9,6.5,6.5v14.2H254
	c3.7,0,6.8,3.1,6.8,6.8v141.6c0,3.7-3.1,6.8-6.8,6.8H54.4z"/>
<path class="st5" d="M152.7,71.4c0.8,0,1.5,0.7,1.5,1.5v19.2H254c1,0,1.8,0.8,1.8,1.8v141.6c0,1-0.8,1.8-1.8,1.8H54.4
	c-1,0-1.8-0.8-1.8-1.8V122.8V93.9v-21c0-0.8,0.7-1.5,1.5-1.5H152.7 M152.7,61.4H54.1c-6.3,0-11.5,5.2-11.5,11.5v21v28.9v112.7
	c0,6.5,5.3,11.8,11.8,11.8H254c6.5,0,11.8-5.3,11.8-11.8V93.9c0-6.5-5.3-11.8-11.8-11.8h-89.8v-9.2C164.2,66.6,159,61.4,152.7,61.4
	L152.7,61.4z"/>
<g class="st1">
	<path class="st3" d="M194,156.1c-11.2,0-21.8,1.8-31.2,4.9c22.3,7.3,37.5,22.2,37.5,39.4v23.8h62.3v-23.8
		C262.7,175.9,232,156.1,194,156.1z"/>
	<path class="st3" d="M110.5,156.1c-37.9,0-68.7,19.8-68.7,44.2v23.8h137.4v-23.8C179.2,175.9,148.5,156.1,110.5,156.1z"/>
	<circle class="st3" cx="110.5" cy="107.8" r="32"/>
	<circle class="st3" cx="194.9" cy="107.8" r="32"/>
</g>
<g class="st1">
	<path class="st3" d="M204.9,170.6H47.5c-0.9,0-1.6-0.7-1.6-1.6V63.1c0-0.9,0.7-1.6,1.6-1.6h157.4c0.9,0,1.6,0.7,1.6,1.6V169
		C206.6,169.9,205.8,170.6,204.9,170.6z"/>
	<path class="st3" d="M246.2,116h-29.4v50c0,9.9-8.1,18-18,18H98.4v36.6c0,9.9,8.1,18,18,18h129.8c10,0,18-8.1,18-18v-86.5
		C264.2,124.1,256.2,116,246.2,116z"/>
	<polygon class="st3" points="45.9,199.2 93.6,167.8 45.9,142 	"/>
</g>
<g class="st1">
	<path class="st3" d="M251.2,219.5H48.8c-0.9,0-1.6-0.7-1.6-1.6V57c0-0.9,0.7-1.6,1.6-1.6h202.4c0.9,0,1.6,0.7,1.6,1.6v160.8
		C252.8,218.8,252.1,219.5,251.2,219.5z"/>
	<polygon class="st3" points="47.2,262.4 108.3,215.2 47.2,176.6 	"/>
	<line class="st6" x1="92.1" y1="105.9" x2="209" y2="106.9"/>
	<line class="st6" x1="91.8" y1="138.6" x2="208.7" y2="139.6"/>
	<line class="st6" x1="91.6" y1="168.9" x2="208.4" y2="169.9"/>
</g>
<path class="st7" d="M151.4,143h3.6c15.1,0,27.4,12.3,27.4,27.4v41.9c0,15.1-12.3,27.4-27.4,27.4h-3.6c-15.1,0-27.4-12.3-27.4-27.4
	v-41.9C124,155.3,136.3,143,151.4,143z"/>
<path class="st7" d="M151.4,63.6h3.6c15.1,0,27.4,12.3,27.4,27.4v3.6c0,15.1-12.3,27.4-27.4,27.4h-3.6c-15.1,0-27.4-12.3-27.4-27.4
	V91C124,75.9,136.3,63.6,151.4,63.6z"/>
</svg>
